<svg xmlns="http://www.w3.org/2000/svg" width="933.333" height="933.333" version="1.0" viewBox="0 0 700 700"><path d="M112.5 39.5c-.7.5-4.6 6.8-8.7 14-4.2 7.1-12.9 22.2-19.3 33.5-6.5 11.3-17.7 30.6-24.8 43-7.2 12.4-14 24.4-15.3 26.7-1.3 2.3-3.1 5.4-4 6.8-1.2 1.8-1.4 2.9-.7 3.3.6.4 124.1.7 274.4.6h273.3l2.9-5c1.6-2.7 9.1-15.5 16.5-28.4 41.4-71.7 54.2-94.3 53.7-94.8-1-1.1-546.7-.8-548 .3zM231.6 254.3c-1.1 1.7-34.9 60.1-43.7 75.5-1.1 1.8-3.7 6.3-5.8 10-2.1 3.7-8 13.9-13.1 22.7-5.1 8.8-10.5 18.3-12.1 21l-2.8 5 5.5 9.5c3.1 5.2 6.8 11.7 8.3 14.5 1.5 2.7 8.6 14.9 15.6 27 7.1 12.1 13.8 23.8 15 26 1.2 2.2 3.6 6.3 5.2 9.1 1.7 2.7 4.1 7 5.5 9.5 1.4 2.4 8.3 14.3 15.3 26.4 7 12.1 13.7 23.6 14.7 25.5 1.1 1.9 5.4 9.3 9.6 16.5 4.1 7.1 8.3 14.3 9.2 16 1 1.6 8.5 14.8 16.8 29.2 8.4 14.4 16 27.7 17.1 29.5 9.2 16.2 17.6 30.6 18.6 32.1 1.4 2-1.1 5.9 25-39.3 15.4-26.7 18.1-31.4 28.9-49.8 3.6-6.2 6.6-11.4 6.6-11.7 0-.3 1.6-2.9 3.5-5.9 1.9-3 3.5-5.8 3.5-6.1 0-.3 1.1-2.2 2.3-4.3 1.3-2 3.5-5.8 4.9-8.3 1.4-2.5 3.2-5.5 3.9-6.7 1.4-2.3 1.4-2.5-4.4-12.3-1.7-3-5.4-9.3-8-14-2.6-4.6-5.6-9.8-6.6-11.4-1-1.7-2.7-4.6-3.8-6.5-1.1-1.9-7.8-13.4-14.8-25.5-7-12.1-13.8-23.8-15-26-1.3-2.2-7.2-12.6-13.3-23-6-10.5-10.6-19.2-10.2-19.5.5-.3 35.7-.5 78.3-.4h77.5l3.3-5.5c4.7-7.6 5.7-9.4 6.6-11.1.4-.8 3.5-6.4 7-12.4s6.3-11.1 6.3-11.4c0-.3.6-1.3 1.4-2.1.7-.9 2.7-4.1 4.3-7.1 1.7-3 6-10.6 9.7-16.9 3.6-6.2 6.6-11.5 6.6-11.6 0-.2 2.8-5 6.1-10.7 3.4-5.6 7.1-11.9 8.2-13.8 1-1.9 5.7-10.1 10.3-18.1 4.6-8.1 8.4-14.9 8.4-15.2 0-.3-70.7-.6-157-.6H233l-1.4 2.2z"/></svg>